<svg width="100" height="102" viewBox="0 0 100 102" fill="none" xmlns="http://www.w3.org/2000/svg">
<g clip-path="url(#clip0_2252_518)">
<path fill-rule="evenodd" clip-rule="evenodd" d="M45.8548 62.51C40.9527 62.3868 40.8129 54.0943 41.0596 50.437C40.3934 50.0426 35.5242 40.6981 35.6229 39.0626C33.6982 32.5618 34.8168 23.4392 41.9397 21.4996C45.2708 20.5874 47.6643 21.927 50.757 22.1982C50.5102 21.9928 50.7981 22.1325 50.1976 21.853C42.4332 18.7958 35.5488 20.571 33.361 29.6113C31.8311 35.9725 33.7475 42.9664 37.2432 48.3578C37.7202 49.081 38.4358 49.5905 38.4852 50.585C38.6908 54.3408 37.9505 63.7099 44.144 65.14C48.8734 66.233 47.1462 59.4445 48.1332 52.8615C49.6219 43.0815 64.0651 34.7232 57.7236 38.7832C42.3263 48.629 48.5938 59.4281 45.863 62.5018L45.8548 62.51Z" fill="#2B4566"/>
<path fill-rule="evenodd" clip-rule="evenodd" d="M68.9343 41.9309L69.1564 41.3063C70.9988 34.9698 71.3607 29.2497 67.6923 24.3186C63.7196 18.9766 54.7626 19.8806 51.4067 22.2722C54.96 21.927 61.795 19.9217 65.414 24.746C69.2387 29.8497 68.2188 35.6273 65.9898 41.4624C65.2084 43.5253 64.4846 45.4402 63.3002 47.388C62.6586 48.4564 62.1158 48.9824 62.1158 50.3959C62.1404 54.6038 61.4166 62.5183 56.9751 62.2388C55.511 59.724 56.9504 49.1139 51.7933 49.5083C55.5933 49.607 54.5652 58.483 54.5816 59.8965C54.5981 61.9594 55.0587 64.0716 56.8928 64.3099C62.8478 65.0742 64.6573 56.5681 64.8712 51.6534C64.9945 48.8098 67.1084 46.9853 68.0542 44.4868C68.3997 43.5992 68.5149 42.8103 68.9426 41.9473L68.9343 41.9309Z" fill="#2B4566"/>
<path fill-rule="evenodd" clip-rule="evenodd" d="M25.0698 74.2954C20.3568 68.4685 16.4335 65.2386 13.3162 55.2695C5.66688 30.9263 23.4165 3.27099 51.7025 3.24633C83.0235 3.22167 102.788 37.6408 85.3512 65.5673C82.8097 69.6355 80.6054 71.4271 78.3846 74.3447C89.6036 66.5782 99.0295 46.1881 91.2157 26.891C76.5833 -9.31978 26.5256 -8.47327 12.3785 26.4636C5.46125 43.5499 11.7205 66.118 25.078 74.2872L25.0698 74.2954Z" fill="#2B4566"/>
<path d="M12.7983 101.943V97.6196H14.0239C14.4022 97.6196 14.7312 97.7018 15.0191 97.8661C15.307 98.0305 15.5291 98.2688 15.6936 98.5729C15.8498 98.877 15.9321 99.2304 15.9321 99.6331V99.9125C15.9321 100.323 15.8498 100.677 15.6936 100.981C15.5373 101.285 15.307 101.523 15.0191 101.688C14.723 101.852 14.3858 101.934 13.9992 101.943H12.7983ZM13.3659 98.088V101.482H13.9663C14.4022 101.482 14.7477 101.343 14.9944 101.071C15.2412 100.8 15.3646 100.406 15.3646 99.9043V99.6495C15.3646 99.1564 15.2494 98.7784 15.0191 98.5072C14.7888 98.236 14.4598 98.0962 14.0403 98.0962H13.3741L13.3659 98.088Z" fill="#2B4566"/>
<path d="M20.456 99.9454H18.5807V101.474H20.7604V101.943H18.0132V97.6196H20.7357V98.088H18.5889V99.477H20.4642V99.9454H20.456Z" fill="#2B4566"/>
<path d="M26.0162 101.943H25.4405L23.2608 98.6058V101.943H22.6851V97.6196H23.2608L25.4487 100.965V97.6196H26.0162V101.943Z" fill="#2B4566"/>
<path d="M31.1484 98.0798H29.7583V101.934H29.1908V98.0798H27.8008V97.6113H31.1484V98.0798Z" fill="#2B4566"/>
<path d="M35.1621 100.808H33.3526L32.9413 101.943H32.3491L34.0024 97.6196H34.5041L36.1573 101.943H35.5733L35.1621 100.808ZM33.5171 100.34H34.9894L34.2491 98.3181L33.5171 100.34Z" fill="#2B4566"/>
<path d="M38.5342 101.474H40.5823V101.943H37.9585V97.6196H38.5342V101.474Z" fill="#2B4566"/>
<path d="M47.5654 100.808H45.7559L45.3446 101.943H44.7524L46.4057 97.6196H46.9074L48.5606 101.943H47.9767L47.5654 100.808ZM45.9204 100.34H47.3927L46.6524 98.3181L45.9204 100.34Z" fill="#2B4566"/>
<path d="M52.813 99.9454H50.9376V101.474H53.1173V101.943H50.3701V97.6196H53.0926V98.088H50.9459V99.477H52.8212V99.9454H52.813Z" fill="#2B4566"/>
<path d="M56.3174 100.011C55.8239 99.8714 55.4702 99.6988 55.2481 99.4933C55.026 99.2879 54.9109 99.0331 54.9109 98.7372C54.9109 98.4003 55.0507 98.1126 55.3222 97.8907C55.5936 97.6688 55.9473 97.5538 56.3832 97.5538C56.6793 97.5538 56.9425 97.6113 57.181 97.7264C57.4113 97.8414 57.5923 97.9976 57.7239 98.203C57.8555 98.4085 57.913 98.6222 57.913 98.8687H57.3373C57.3373 98.6057 57.255 98.4003 57.0905 98.2524C56.926 98.1044 56.6875 98.0304 56.3832 98.0304C56.1035 98.0304 55.8815 98.0962 55.7252 98.2195C55.5689 98.3428 55.4867 98.5153 55.4867 98.7372C55.4867 98.9098 55.5607 99.066 55.7087 99.181C55.8568 99.2961 56.1118 99.4112 56.4737 99.518C56.8356 99.6166 57.1152 99.7317 57.3208 99.855C57.5265 99.9782 57.6745 100.118 57.7732 100.282C57.8719 100.447 57.9213 100.636 57.9213 100.858C57.9213 101.211 57.7814 101.49 57.51 101.696C57.2386 101.91 56.8685 102.008 56.4161 102.008C56.12 102.008 55.8403 101.951 55.5854 101.836C55.3304 101.721 55.133 101.564 54.9932 101.367C54.8533 101.17 54.7793 100.948 54.7793 100.693H55.3551C55.3551 100.956 55.4538 101.162 55.6429 101.31C55.8403 101.458 56.0953 101.54 56.4161 101.54C56.7204 101.54 56.9507 101.482 57.107 101.359C57.2715 101.236 57.3455 101.071 57.3455 100.858C57.3455 100.644 57.2715 100.48 57.1234 100.365C56.9754 100.249 56.704 100.134 56.3174 100.019V100.011Z" fill="#2B4566"/>
<path d="M62.8642 98.0798H61.4742V101.934H60.9066V98.0798H59.5166V97.6113H62.8642V98.0798Z" fill="#2B4566"/>
<path d="M68.0544 101.943H67.4786V99.9454H65.299V101.943H64.7314V97.6196H65.299V99.477H67.4786V97.6196H68.0544V101.943Z" fill="#2B4566"/>
<path d="M72.726 99.9454H70.8507V101.474H73.0304V101.943H70.2832V97.6196H73.0057V98.088H70.859V99.477H72.7343V99.9454H72.726Z" fill="#2B4566"/>
<path d="M78.0063 98.0798H76.6163V101.934H76.0487V98.0798H74.6587V97.6113H78.0063V98.0798Z" fill="#2B4566"/>
<path d="M80.4821 101.943H79.9146V97.6196H80.4821V101.943Z" fill="#2B4566"/>
<path d="M85.9273 100.57C85.8698 101.03 85.7053 101.384 85.4174 101.63C85.1295 101.877 84.7512 102 84.2823 102C83.7724 102 83.3611 101.819 83.0568 101.449C82.7525 101.08 82.5962 100.595 82.5962 99.9782V99.5591C82.5962 99.1564 82.6702 98.803 82.81 98.4989C82.9499 98.1948 83.1555 97.9565 83.4187 97.8003C83.6819 97.636 83.9862 97.5538 84.3317 97.5538C84.7923 97.5538 85.1624 97.6853 85.4338 97.94C85.7135 98.1948 85.8698 98.5482 85.9191 99.0085H85.3434C85.294 98.6633 85.1871 98.4085 85.0226 98.2606C84.8581 98.1044 84.6278 98.0304 84.3317 98.0304C83.9698 98.0304 83.6819 98.1619 83.4763 98.4332C83.2706 98.7044 83.1637 99.0824 83.1637 99.5837V100.003C83.1637 100.471 83.2624 100.849 83.4598 101.121C83.6572 101.392 83.9287 101.54 84.2823 101.54C84.6031 101.54 84.8416 101.466 85.0144 101.326C85.1871 101.186 85.294 100.932 85.3516 100.578H85.9273V100.57Z" fill="#2B4566"/>
<path d="M89.1924 100.011C88.6989 99.8714 88.3452 99.6988 88.1231 99.4933C87.901 99.2879 87.7859 99.0331 87.7859 98.7372C87.7859 98.4003 87.9257 98.1126 88.1972 97.8907C88.4686 97.6688 88.8223 97.5538 89.2582 97.5538C89.5543 97.5538 89.8175 97.6113 90.056 97.7264C90.2863 97.8414 90.4673 97.9976 90.5989 98.203C90.7305 98.4085 90.788 98.6222 90.788 98.8687H90.2123C90.2123 98.6057 90.13 98.4003 89.9655 98.2524C89.801 98.1044 89.5625 98.0304 89.2582 98.0304C88.9785 98.0304 88.7565 98.0962 88.6002 98.2195C88.4439 98.3428 88.3617 98.5153 88.3617 98.7372C88.3617 98.9098 88.4357 99.066 88.5837 99.181C88.7318 99.2961 88.9868 99.4112 89.3487 99.518C89.7106 99.6166 89.9902 99.7317 90.1958 99.855C90.4015 99.9782 90.5495 100.118 90.6482 100.282C90.7469 100.447 90.7963 100.636 90.7963 100.858C90.7963 101.211 90.6564 101.49 90.385 101.696C90.1136 101.91 89.7435 102.008 89.2911 102.008C88.995 102.008 88.7153 101.951 88.4604 101.836C88.2054 101.721 88.008 101.564 87.8682 101.367C87.7283 101.17 87.6543 100.948 87.6543 100.693H88.23C88.23 100.956 88.3288 101.162 88.5179 101.31C88.7153 101.458 88.9703 101.54 89.2911 101.54C89.5954 101.54 89.8257 101.482 89.982 101.359C90.1465 101.236 90.2205 101.071 90.2205 100.858C90.2205 100.644 90.1465 100.48 89.9984 100.365C89.8504 100.249 89.579 100.134 89.1924 100.019V100.011Z" fill="#2B4566"/>
<path d="M4.11253 92.3433C3.46275 92.3433 2.87877 92.2446 2.36882 92.0392C1.85886 91.8337 1.43116 91.5461 1.07748 91.1598C0.723805 90.7735 0.460603 90.3051 0.279652 89.7462C0.0987007 89.1874 0 88.5463 0 87.8313C0 87.4368 0.0246752 87.0259 0.0822506 86.5821C0.139826 86.1383 0.222076 85.6945 0.345452 85.2425C0.526403 84.5275 0.76493 83.8453 1.06103 83.2043C1.35713 82.5632 1.69436 81.9715 2.08094 81.4209C2.46752 80.8784 2.88699 80.3853 3.3476 79.9415C3.8082 79.4977 4.29348 79.1197 4.80343 78.8074C5.31339 78.4951 5.84801 78.2567 6.39909 78.0924C6.95017 77.928 7.50947 77.8376 8.077 77.8376C8.34843 77.8376 8.61986 77.8705 8.89951 77.9362C9.17916 78.002 9.42591 78.1088 9.63976 78.2567C9.85362 78.4047 10.0428 78.6019 10.1744 78.8567C10.3142 79.1032 10.38 79.4155 10.38 79.7854C10.38 80.1141 10.3307 80.4182 10.232 80.6976C10.1333 80.9771 10.0017 81.2318 9.82894 81.462C9.65621 81.6921 9.45881 81.9058 9.22851 82.103C8.99821 82.3002 8.75146 82.4728 8.48826 82.6208L8.33198 82.3989C8.80903 82.0208 9.15449 81.5934 9.38479 81.1332C9.60686 80.673 9.72201 80.1881 9.72201 79.6868C9.72201 79.1854 9.59864 78.7745 9.36011 78.5362C9.11336 78.2978 8.75968 78.1745 8.29086 78.1745C7.69043 78.1745 7.08177 78.3553 6.46489 78.7087C5.84801 79.0621 5.24758 79.5553 4.68006 80.1716C4.11253 80.7963 3.58612 81.5277 3.10907 82.366C2.63202 83.2043 2.23721 84.1165 1.93289 85.0863C1.73549 85.7109 1.57921 86.3273 1.47228 86.9355C1.36536 87.5437 1.31601 88.1107 1.31601 88.6367C1.31601 90.8146 2.29479 91.8995 4.24413 91.8995C5.36274 91.8995 6.38264 91.5461 7.32852 90.8393C8.26618 90.1325 9.15449 89.0476 9.98522 87.5765L10.4458 86.7711L10.6843 86.9355L10.2237 87.7409C9.77959 88.5299 9.31899 89.2038 8.85838 89.7791C8.39778 90.3544 7.9125 90.8311 7.41077 91.2009C6.90905 91.5789 6.39087 91.8584 5.83979 92.0392C5.29694 92.22 4.71296 92.3186 4.1043 92.3186L4.11253 92.3433Z" fill="#2B4566"/>
<path d="M10.043 86.8615C10.2568 86.2287 10.5036 85.6534 10.7997 85.1356C11.0958 84.6178 11.4083 84.1576 11.7538 83.7467C12.0992 83.344 12.4611 82.9906 12.8395 82.7029C13.2178 82.407 13.5962 82.1687 13.9745 81.9797C14.3529 81.7907 14.723 81.6509 15.0932 81.5523C15.4633 81.4537 15.8087 81.4126 16.1295 81.4126C16.4503 81.4126 16.7464 81.4619 16.9685 81.5688C17.1905 81.6756 17.3715 81.8153 17.5113 81.9961C17.6511 82.1769 17.7498 82.407 17.8074 82.6618C17.865 82.9248 17.8979 83.2125 17.8979 83.5248L18.6135 81.5688H19.913L17.6676 87.7244C17.5853 87.9545 17.5031 88.1847 17.4208 88.423C17.3386 88.6613 17.2646 88.8914 17.207 89.1298C17.1494 89.3599 17.0918 89.5818 17.0589 89.7955C17.0178 90.0092 17.0014 90.2064 17.0014 90.3872C17.0014 90.7899 17.1083 91.1105 17.3221 91.357C17.536 91.5953 17.8732 91.7186 18.3174 91.7186C18.7122 91.7186 19.0905 91.6364 19.4607 91.4638C19.8308 91.2995 20.1927 91.0447 20.5546 90.6995C20.9165 90.3543 21.2784 89.927 21.6403 89.4092C22.0022 88.8914 22.3806 88.2833 22.7671 87.5847L23.2195 86.7793L23.458 86.9437L22.9974 87.7491C22.5697 88.5134 22.1585 89.1709 21.7719 89.7215C21.3853 90.2722 20.9905 90.7324 20.6039 91.094C20.2174 91.4556 19.8226 91.7186 19.4113 91.8912C19.0083 92.0638 18.5724 92.1542 18.12 92.1542C17.7581 92.1542 17.4455 92.0967 17.1741 91.9898C16.9027 91.883 16.6724 91.7268 16.4914 91.5296C16.3105 91.3324 16.1706 91.0858 16.0719 90.8064C15.9732 90.5269 15.9321 90.2146 15.9321 89.8612C15.9321 89.6311 15.9486 89.3846 15.9897 89.1216C16.0308 88.8586 16.0884 88.5791 16.1706 88.2915C15.4057 89.5818 14.6408 90.5516 13.8923 91.1926C13.1438 91.8337 12.3789 92.1542 11.6057 92.1542C11.2438 92.1542 10.9313 92.0885 10.6763 91.957C10.4213 91.8255 10.2075 91.6364 10.043 91.4063C9.87847 91.168 9.75509 90.8885 9.68107 90.568C9.60704 90.2475 9.56592 89.8941 9.56592 89.5161C9.56592 89.1051 9.60704 88.6695 9.68929 88.2175C9.77154 87.7655 9.8867 87.3053 10.043 86.8533V86.8615ZM11.9183 91.7268C12.2391 91.7268 12.5598 91.6447 12.8888 91.4721C13.2178 91.3077 13.5468 91.0776 13.8676 90.7899C14.1966 90.5023 14.5092 90.1571 14.8135 89.7708C15.1178 89.3846 15.4057 88.9654 15.6771 88.5216C15.9486 88.0778 16.2035 87.6258 16.4338 87.1573C16.6641 86.6889 16.8615 86.2287 17.026 85.7684C17.1905 85.3164 17.3221 84.8808 17.4126 84.4699C17.5031 84.059 17.5524 83.6891 17.5524 83.3604C17.5524 83.0645 17.5195 82.8097 17.4455 82.6043C17.3715 82.3988 17.2728 82.2345 17.1576 82.1112C17.0343 81.9879 16.9027 81.8975 16.7464 81.84C16.5901 81.7907 16.4338 81.7578 16.2693 81.7578C15.9403 81.7578 15.5784 81.8564 15.1754 82.0619C14.7724 82.2673 14.3611 82.5714 13.9499 82.9823C13.5304 83.3933 13.1274 83.9192 12.7243 84.5521C12.3213 85.1849 11.9512 85.9246 11.6222 86.7711C11.3425 87.4779 11.1369 88.1353 11.0053 88.7435C10.8655 89.3517 10.7997 89.853 10.7997 90.2557C10.7997 90.716 10.8902 91.0694 11.0793 91.3323C11.2603 91.5953 11.5564 91.7268 11.943 91.7268H11.9183Z" fill="#2B4566"/>
<path d="M21.6895 89.6147C21.6895 89.3188 21.7224 89.0147 21.7882 88.7188C21.854 88.423 21.9444 88.1435 22.0514 87.8888C22.1665 87.634 22.2899 87.4039 22.4379 87.1984C22.586 86.993 22.7423 86.8368 22.9068 86.7217L26.6245 81.3222C26.6903 80.8455 26.7972 80.4674 26.9617 80.1798C27.118 79.8922 27.3072 79.7524 27.5375 79.7524C27.7102 79.7524 27.8582 79.8018 27.9816 79.8922C28.0968 79.9826 28.1543 80.0976 28.1543 80.2373C28.1543 80.336 28.1297 80.4264 28.0803 80.5003C28.031 80.5743 27.9487 80.6647 27.8336 80.7633C27.702 80.8784 27.5868 80.977 27.4963 81.0838C27.4059 81.1825 27.3318 81.2811 27.2743 81.3797C27.2167 81.4783 27.1756 81.5852 27.1509 81.7002C27.1262 81.8153 27.118 81.9303 27.118 82.0618C27.118 82.1933 27.1262 82.3248 27.1509 82.4645C27.1673 82.6043 27.2085 82.7851 27.2578 82.9988C27.3072 83.2124 27.3894 83.4836 27.4799 83.8042C27.5786 84.1247 27.702 84.5356 27.8582 85.0287C28.0145 85.5218 28.1214 85.9903 28.1955 86.4341C28.2695 86.8779 28.3024 87.3135 28.3024 87.7326C28.3024 89.3434 27.7184 90.568 26.5505 91.3981C26.205 91.6446 25.8267 91.8337 25.4319 91.9652C25.0288 92.0967 24.6258 92.1624 24.2145 92.1624C23.828 92.1624 23.4743 92.1049 23.17 91.9816C22.8574 91.8583 22.5942 91.6939 22.3804 91.472C22.1665 91.2501 22.002 90.9872 21.8869 90.6749C21.7717 90.3625 21.7141 90.0091 21.7141 89.6147H21.6895ZM26.5669 81.955L23.4249 86.5409C23.6141 86.5409 23.7622 86.5985 23.8773 86.7217C23.9925 86.845 24.0418 87.0094 24.0418 87.2149C24.0418 87.3217 24.0254 87.4203 24.0007 87.5189C23.9678 87.6176 23.9267 87.6997 23.8773 87.7737C23.828 87.8477 23.7622 87.9052 23.6964 87.9463C23.6306 87.9874 23.5565 88.012 23.4743 88.012C23.3756 88.012 23.2933 87.9956 23.2193 87.9545C23.1453 87.9134 23.063 87.897 22.9561 87.897C22.8327 87.897 22.7176 87.9381 22.6107 88.0285C22.5037 88.1107 22.405 88.2339 22.331 88.3819C22.2488 88.538 22.1912 88.7106 22.1501 88.9243C22.1089 89.1298 22.0843 89.3599 22.0843 89.6064C22.0843 89.9352 22.1336 90.231 22.2241 90.494C22.3146 90.757 22.4462 90.9789 22.6189 91.168C22.7916 91.3488 22.9972 91.4967 23.244 91.5953C23.4907 91.6939 23.7622 91.7433 24.0747 91.7433C24.486 91.7433 24.8643 91.6529 25.218 91.4803C25.5717 91.3077 25.876 91.0529 26.1392 90.7159C26.7725 89.9105 27.0933 88.686 27.0933 87.0587C27.0933 86.8615 27.0933 86.6642 27.0769 86.467C27.0604 86.2697 27.0522 86.0643 27.0357 85.8506C27.0111 85.6369 26.9864 85.4068 26.9535 85.1602C26.9206 84.9137 26.8795 84.6342 26.8301 84.3219C26.7479 83.7959 26.6903 83.3604 26.6492 83.0152C26.608 82.67 26.5916 82.3824 26.5916 82.1605V81.9797L26.5669 81.955Z" fill="#2B4566"/>
<path d="M30.1119 81.5688H32.6863L33.5253 79.2676H34.8248L33.9859 81.5688H36.6261V81.9222H33.8543L31.7404 87.7327C31.6582 87.9628 31.5759 88.1929 31.5019 88.4394C31.4197 88.6778 31.3539 88.9161 31.2881 89.1462C31.2223 89.3764 31.1729 89.5983 31.14 89.8119C31.0989 90.0256 31.0824 90.2229 31.0824 90.3954C31.0824 90.7982 31.1894 91.1187 31.4114 91.3652C31.6335 91.6118 31.9625 91.7269 32.4067 91.7269C32.8508 91.7269 33.2621 91.6447 33.6733 91.4803C34.0846 91.3159 34.4876 91.0611 34.8906 90.7242C35.2937 90.3872 35.6885 89.9517 36.0833 89.4339C36.4781 88.9161 36.8729 88.2997 37.2759 87.5929L37.7365 86.7875L37.975 86.9519L37.5144 87.7573C37.0538 88.5792 36.6015 89.2695 36.1655 89.8284C35.7296 90.3872 35.3019 90.8392 34.8742 91.1844C34.4465 91.5296 34.0188 91.7762 33.5829 91.9323C33.1469 92.0885 32.6946 92.1624 32.2257 92.1624C31.8638 92.1624 31.5513 92.1049 31.2716 91.9981C30.992 91.8912 30.7617 91.7351 30.5807 91.5378C30.3998 91.3406 30.2517 91.094 30.1612 90.8146C30.0625 90.5352 30.0132 90.2229 30.0132 89.8695C30.0132 89.5654 30.0461 89.2284 30.1201 88.8668C30.1941 88.5052 30.3011 88.1189 30.4491 87.7244L32.5629 81.9139H30.1201V81.5605L30.1119 81.5688Z" fill="#2B4566"/>
<path d="M40.3766 92.1624C39.3156 92.1624 38.4931 91.883 37.9173 91.3323C37.3416 90.7817 37.0537 89.9516 37.0537 88.8586C37.0537 88.5627 37.0784 88.2422 37.1195 87.9052C37.1606 87.5683 37.2347 87.2313 37.3251 86.8779C37.539 86.0889 37.8351 85.3657 38.2217 84.7C38.6082 84.0343 39.0442 83.4508 39.5459 82.9659C40.0476 82.481 40.5823 82.0947 41.158 81.8235C41.7338 81.5441 42.3095 81.4126 42.8935 81.4126C43.4775 81.4126 43.9463 81.5523 44.2835 81.8235C44.6208 82.103 44.7935 82.4892 44.7935 82.9823C44.7935 83.2618 44.7359 83.5412 44.629 83.8124C44.5138 84.0836 44.3576 84.3384 44.1437 84.5767C43.9299 84.8151 43.6749 85.0452 43.3788 85.2506C43.0827 85.4561 42.7454 85.6369 42.3835 85.7931C41.9229 85.9903 41.4212 86.13 40.8701 86.2286C40.3191 86.3273 39.694 86.3766 38.9866 86.3766C38.8139 86.8533 38.6823 87.3464 38.5836 87.8559C38.4849 88.3655 38.4355 88.8914 38.4355 89.4257C38.4355 90.2393 38.6082 90.831 38.9537 91.1926C39.2992 91.5542 39.842 91.7351 40.5823 91.7351C41.1991 91.7351 41.7831 91.62 42.3424 91.3817C42.9017 91.1433 43.4199 90.831 43.8887 90.4448C44.3658 90.0585 44.8017 89.6147 45.1883 89.1216C45.5831 88.6285 45.9285 88.1189 46.2164 87.6011L46.677 86.7957L46.9156 86.9601L46.4549 87.7655C46.093 88.4066 45.69 88.9983 45.2623 89.5325C44.8346 90.0749 44.3576 90.5352 43.8558 90.9296C43.3541 91.3241 42.803 91.6282 42.2273 91.8419C41.6515 92.0556 41.0346 92.1706 40.3849 92.1706L40.3766 92.1624ZM43.1403 81.7578C42.7701 81.7578 42.3918 81.8646 42.0052 82.0865C41.6186 82.3002 41.2485 82.6043 40.8948 82.9906C40.5329 83.3768 40.2039 83.8288 39.8914 84.3466C39.5788 84.8726 39.3074 85.4397 39.0853 86.0561C39.7269 86.0478 40.2862 85.9903 40.7385 85.8835C41.1909 85.7766 41.5939 85.6534 41.9394 85.489C42.2108 85.3657 42.474 85.2096 42.729 85.0123C42.984 84.8151 43.2143 84.5932 43.4035 84.3384C43.6009 84.0836 43.7571 83.8124 43.8805 83.5165C44.0039 83.2207 44.0615 82.9166 44.0615 82.6043C44.0615 82.4481 44.0368 82.3166 43.9874 82.2098C43.9381 82.103 43.8723 82.0208 43.79 81.9468C43.7078 81.8811 43.6091 81.8317 43.5022 81.7989C43.3952 81.766 43.2719 81.7578 43.1403 81.7578Z" fill="#2B4566"/>
<path d="M49.893 76.9335H51.2008L47.2693 87.7244C47.187 87.9545 47.1048 88.1847 47.0225 88.423C46.9403 88.6613 46.8662 88.8914 46.8087 89.1298C46.7511 89.3599 46.6935 89.5818 46.6606 89.7955C46.6195 90.0092 46.603 90.2064 46.603 90.3872C46.603 90.7899 46.71 91.1105 46.9238 91.357C47.1377 91.5953 47.4749 91.7186 47.919 91.7186C48.3138 91.7186 48.6922 91.6364 49.0623 91.4638C49.4324 91.2913 49.7943 91.0365 50.1562 90.6913C50.5182 90.3461 50.8801 89.9188 51.242 89.401C51.6039 88.8832 51.9822 88.2751 52.377 87.5847L52.8376 86.7793L53.0761 86.9437L52.6155 87.7491C52.1878 88.5052 51.7766 89.1627 51.39 89.7133C51.0034 90.2639 50.6086 90.7242 50.2221 91.0858C49.8355 91.4474 49.4324 91.7186 49.0294 91.8912C48.6264 92.0638 48.1905 92.1542 47.7381 92.1542C47.3762 92.1542 47.0636 92.0967 46.7922 91.9898C46.5208 91.883 46.2905 91.7268 46.1013 91.5296C45.9203 91.3324 45.7805 91.0858 45.6818 90.8064C45.5913 90.5269 45.542 90.2146 45.542 89.8612C45.542 89.5571 45.5749 89.2202 45.6489 88.8668C45.7229 88.5052 45.8299 88.1271 45.9779 87.7162L49.9013 76.9253L49.893 76.9335Z" fill="#2B4566"/>
<path d="M56.0538 76.9335H57.3615L53.43 87.7244C53.3477 87.9545 53.2655 88.1847 53.1832 88.423C53.101 88.6613 53.0269 88.8914 52.9694 89.1298C52.9118 89.3599 52.8542 89.5818 52.8213 89.7955C52.7884 90.0092 52.7637 90.2064 52.7637 90.3872C52.7637 90.7899 52.8707 91.1105 53.0845 91.357C53.2984 91.6036 53.6356 91.7186 54.088 91.7186C54.4828 91.7186 54.8611 91.6364 55.2313 91.4638C55.6014 91.2913 55.9633 91.0365 56.3252 90.6913C56.6871 90.3461 57.049 89.9188 57.4109 89.401C57.7728 88.8832 58.1512 88.2751 58.546 87.5847L59.0066 86.7793L59.2451 86.9437L58.7845 87.7491C58.3568 88.5052 57.9455 89.1627 57.559 89.7133C57.1724 90.2639 56.7776 90.7242 56.391 91.0858C56.0044 91.4474 55.6014 91.7186 55.1984 91.8912C54.7953 92.0638 54.3594 92.1542 53.907 92.1542C53.5451 92.1542 53.2326 92.0967 52.9611 91.9898C52.6897 91.883 52.4594 91.7268 52.2702 91.5296C52.0811 91.3324 51.9495 91.0858 51.8508 90.8064C51.7603 90.5269 51.7109 90.2146 51.7109 89.8612C51.7109 89.5571 51.7438 89.2202 51.8179 88.8668C51.8919 88.5052 51.9988 88.1271 52.1469 87.7162L56.0702 76.9253L56.0538 76.9335Z" fill="#2B4566"/>
<path d="M58.5869 86.8615C58.8008 86.2287 59.0475 85.6534 59.3436 85.1356C59.6397 84.6178 59.9523 84.1576 60.2977 83.7467C60.6432 83.344 61.0051 82.9906 61.3834 82.7029C61.7618 82.407 62.1401 82.1687 62.5185 81.9797C62.8968 81.7907 63.267 81.6509 63.6371 81.5523C64.0072 81.4537 64.3527 81.4126 64.6735 81.4126C64.9942 81.4126 65.2903 81.4619 65.5124 81.5688C65.7345 81.6756 65.9154 81.8153 66.0553 81.9961C66.1951 82.1769 66.2938 82.407 66.3514 82.6618C66.4089 82.9248 66.4418 83.2125 66.4418 83.5248L67.1574 81.5688H68.457L66.2115 87.7244C66.1293 87.9545 66.047 88.1847 65.9648 88.423C65.8825 88.6613 65.8085 88.8914 65.7509 89.1298C65.6851 89.3599 65.6358 89.5818 65.6029 89.7955C65.5618 90.0092 65.5453 90.2064 65.5453 90.3872C65.5453 90.7899 65.6522 91.1105 65.8661 91.357C66.0799 91.5953 66.4172 91.7186 66.8695 91.7186C67.2644 91.7186 67.6427 91.6364 68.0128 91.4638C68.383 91.2995 68.7449 91.0447 69.1068 90.6995C69.4687 90.3543 69.8306 89.927 70.1925 89.4092C70.5544 88.8914 70.9327 88.2833 71.3193 87.5847L71.7717 86.7793L72.0102 86.9437L71.5496 87.7491C71.1219 88.5134 70.7106 89.1709 70.3241 89.7215C69.9375 90.2722 69.5427 90.7324 69.1561 91.094C68.7695 91.4556 68.3747 91.7186 67.9635 91.8912C67.5604 92.0638 67.1245 92.1542 66.6721 92.1542C66.3102 92.1542 65.9977 92.0967 65.7263 91.9898C65.4548 91.883 65.2245 91.7268 65.0354 91.5296C64.8544 91.3324 64.7146 91.0858 64.6159 90.8064C64.5254 90.5269 64.4761 90.2146 64.4761 89.8612C64.4761 89.6311 64.4925 89.3846 64.5336 89.1216C64.5748 88.8586 64.6323 88.5791 64.7146 88.2915C63.9497 89.5818 63.1847 90.5516 62.4362 91.1926C61.6878 91.8337 60.9228 92.1542 60.1497 92.1542C59.7878 92.1542 59.4752 92.0885 59.2202 91.957C58.9653 91.8255 58.7514 91.6364 58.5869 91.4063C58.4224 91.1762 58.299 90.8885 58.225 90.568C58.151 90.2475 58.1099 89.8941 58.1099 89.5161C58.1099 89.1051 58.151 88.6695 58.2332 88.2175C58.3155 87.7655 58.4306 87.3053 58.5869 86.8533V86.8615ZM60.4622 91.7268C60.7748 91.7268 61.1038 91.6447 61.4328 91.4721C61.7618 91.3077 62.0908 91.0776 62.4116 90.7899C62.7406 90.5023 63.0531 90.1571 63.3574 89.7708C63.6618 89.3846 63.9497 88.9654 64.2211 88.5216C64.4925 88.0778 64.7475 87.6258 64.9778 87.1573C65.2081 86.6889 65.4055 86.2287 65.57 85.7684C65.7345 85.3082 65.8661 84.8808 65.9566 84.4699C66.047 84.059 66.0964 83.6891 66.0964 83.3604C66.0964 83.0645 66.0635 82.8097 65.9895 82.6043C65.9154 82.3988 65.8167 82.2345 65.7016 82.1112C65.5864 81.9879 65.4466 81.8975 65.2903 81.84C65.1341 81.7907 64.9778 81.7578 64.8133 81.7578C64.4843 81.7578 64.1224 81.8564 63.7194 82.0619C63.3163 82.2673 62.9051 82.5714 62.4938 82.9823C62.0743 83.3933 61.6713 83.9192 61.2683 84.5521C60.8653 85.1849 60.4951 85.9246 60.1661 86.7711C59.8865 87.4779 59.6808 88.1353 59.5492 88.7435C59.4094 89.3517 59.3436 89.853 59.3436 90.2557C59.3436 90.716 59.4341 91.0694 59.6233 91.3323C59.8042 91.5953 60.1003 91.7268 60.4869 91.7268H60.4622Z" fill="#2B4566"/>
<path d="M73.2935 81.5688H74.593L73.2112 85.3493C73.606 84.6836 73.9844 84.1001 74.3463 83.607C74.7082 83.1139 75.0701 82.7029 75.432 82.3742C75.7939 82.0455 76.1558 81.8071 76.5259 81.6428C76.8961 81.4784 77.2826 81.4044 77.6939 81.4044C78.064 81.4044 78.3848 81.4619 78.6644 81.5852C78.9441 81.7085 79.1744 81.8729 79.3636 82.0783C79.5527 82.2838 79.6926 82.5304 79.783 82.8016C79.8735 83.081 79.9229 83.3686 79.9229 83.6727C79.9229 84.0097 79.8735 84.3713 79.7748 84.7658C79.6761 85.1603 79.5527 85.563 79.4129 85.9821C79.2649 86.4013 79.1086 86.8204 78.9359 87.2478C78.7631 87.6751 78.6069 88.0861 78.4588 88.4723C78.3108 88.8668 78.1874 89.2367 78.0969 89.5736C77.9982 89.9188 77.9489 90.2147 77.9489 90.4777C77.9489 90.8393 78.0558 91.1351 78.2779 91.3735C78.4999 91.6118 78.8454 91.7269 79.3142 91.7269C79.6926 91.7269 80.0545 91.6365 80.4164 91.4639C80.7783 91.2913 81.1402 91.0365 81.5021 90.6913C81.864 90.3462 82.2259 89.9188 82.596 89.401C82.9661 88.8833 83.3363 88.2833 83.7228 87.593L84.1834 86.7875L84.422 86.9519L83.9614 87.7573C83.5419 88.497 83.1306 89.1463 82.7441 89.6969C82.3575 90.2475 81.9709 90.7078 81.5843 91.0776C81.1978 91.4392 80.803 91.7104 80.3999 91.8995C79.9969 92.0885 79.5692 92.1707 79.1168 92.1707C78.7467 92.1707 78.4259 92.1131 78.1463 92.0063C77.8666 91.8995 77.6363 91.7433 77.4471 91.5461C77.258 91.3488 77.1181 91.1269 77.0277 90.8721C76.9372 90.6174 76.8878 90.3462 76.8878 90.0585C76.8878 89.7544 76.9372 89.4093 77.0359 89.0312C77.1346 88.6531 77.258 88.2587 77.3978 87.8395C77.5376 87.4204 77.7021 87.0094 77.8748 86.5821C78.0476 86.1547 78.2038 85.7438 78.3519 85.3411C78.4999 84.9384 78.6233 84.5603 78.7138 84.1987C78.8125 83.8371 78.8618 83.5166 78.8618 83.2371C78.8618 83.0399 78.8372 82.8509 78.7796 82.6865C78.722 82.5221 78.6398 82.366 78.5246 82.2427C78.4095 82.1194 78.2696 82.0208 78.0969 81.9551C77.9242 81.8811 77.7186 81.8482 77.48 81.8482C77.1099 81.8482 76.748 81.9386 76.3943 82.1194C76.0406 82.3002 75.687 82.5632 75.3333 82.9248C74.9796 83.2865 74.6177 83.7303 74.2476 84.2645C73.8775 84.7987 73.4909 85.4233 73.0878 86.1465L72.6272 86.9519L70.7766 91.9981H69.4771L73.277 81.577L73.2935 81.5688Z" fill="#2B4566"/>
<path d="M83.7641 86.8861C83.9697 86.0972 84.2741 85.3739 84.6689 84.7082C85.0637 84.0425 85.516 83.459 86.0342 82.9741C86.5442 82.481 87.1035 82.103 87.7039 81.8235C88.3043 81.5441 88.913 81.4126 89.5216 81.4126C90.0151 81.4126 90.4264 81.4948 90.7636 81.6674C91.1008 81.84 91.3723 82.0619 91.5779 82.3413C91.7835 82.6207 91.9316 82.9495 92.0221 83.3193C92.1125 83.6891 92.1537 84.0754 92.1537 84.4781C92.1537 84.9219 92.1125 85.3575 92.0221 85.8013C91.9398 86.2451 91.8247 86.6642 91.6931 87.0587C91.6108 87.3135 91.5203 87.5518 91.4134 87.7902C91.3065 88.0285 91.1996 88.2504 91.0762 88.4723C91.1584 88.6696 91.2818 88.8257 91.4381 88.9408C91.5944 89.064 91.8164 89.1216 92.0961 89.1216C92.2606 89.1216 92.4333 89.0969 92.6225 89.0394C92.8117 88.9901 93.0008 88.8997 93.19 88.7764C93.3792 88.6531 93.5684 88.497 93.7493 88.3079C93.9303 88.1107 94.103 87.8806 94.2675 87.5929L94.7281 86.7875L94.9666 86.9519L94.506 87.7573C94.2839 88.1518 94.0536 88.4559 93.8233 88.686C93.593 88.9079 93.371 89.0805 93.1489 89.2038C92.9268 89.327 92.7294 89.3928 92.5402 89.4257C92.3511 89.4585 92.1866 89.475 92.055 89.475C91.7753 89.475 91.5286 89.4421 91.3147 89.3681C91.1008 89.2942 90.9034 89.1955 90.7307 89.0723C90.4346 89.5407 90.1138 89.9681 89.7602 90.3461C89.4065 90.7242 89.0281 91.0529 88.6416 91.3241C88.2468 91.5953 87.8437 91.8008 87.4243 91.9487C87.0048 92.0967 86.5853 92.1706 86.1658 92.1706C85.7463 92.1706 85.3762 92.0967 85.0472 91.9487C84.7182 91.8008 84.4386 91.5871 84.2083 91.2995C83.978 91.02 83.8052 90.6749 83.6818 90.2639C83.5585 89.853 83.4927 89.401 83.4927 88.8832C83.4927 88.5627 83.5173 88.234 83.5667 87.897C83.616 87.56 83.6818 87.2231 83.7723 86.8861H83.7641ZM86.2974 91.7268C86.6346 91.7268 86.9801 91.6529 87.3338 91.4967C87.6792 91.3406 88.0247 91.1187 88.3619 90.831C88.6991 90.5434 89.0281 90.1982 89.3407 89.7873C89.6532 89.3763 89.9411 88.9243 90.2043 88.4312C90.1303 88.2997 90.0809 88.16 90.048 88.0121C90.0151 87.8724 89.9987 87.7244 89.9987 87.5683C89.9987 87.3957 90.0234 87.2313 90.0727 87.0587C90.1221 86.8944 90.1879 86.7382 90.2866 86.5903C90.3853 86.4506 90.5086 86.3191 90.6567 86.1958C90.8047 86.0807 90.9775 85.9821 91.1831 85.9163C91.2736 85.5876 91.3476 85.2424 91.4052 84.889C91.4628 84.5356 91.4957 84.1822 91.4957 83.8371C91.4957 83.5576 91.471 83.2864 91.4134 83.0316C91.3558 82.7769 91.2736 82.555 91.142 82.3659C91.0186 82.1769 90.8459 82.029 90.632 81.9139C90.4182 81.7989 90.155 81.7496 89.8342 81.7496C89.3736 81.7496 88.9212 81.8728 88.4771 82.1112C88.0247 82.3577 87.6052 82.6947 87.2022 83.1385C86.7991 83.5823 86.4372 84.1083 86.1082 84.7247C85.7792 85.341 85.5078 86.0232 85.2857 86.7629C85.1377 87.2642 85.0225 87.7573 84.9485 88.2668C84.8663 88.7682 84.8334 89.2284 84.8334 89.6311C84.8334 91.0118 85.3269 91.7104 86.3056 91.7104L86.2974 91.7268Z" fill="#2B4566"/>
<path d="M93.1899 89.6147C93.1899 89.3188 93.2228 89.0147 93.2886 88.7188C93.3544 88.423 93.4449 88.1435 93.5518 87.8888C93.667 87.634 93.7904 87.4039 93.9384 87.1984C94.0865 86.993 94.2427 86.8368 94.4072 86.7217L98.125 81.3222C98.1908 80.8455 98.2977 80.4674 98.4622 80.1798C98.6185 79.8922 98.8077 79.7524 99.038 79.7524C99.2107 79.7524 99.3587 79.8018 99.4821 79.8922C99.5973 79.9826 99.6548 80.0976 99.6548 80.2373C99.6548 80.336 99.6302 80.4264 99.5808 80.5003C99.5315 80.5743 99.4492 80.6647 99.3341 80.7633C99.2025 80.8784 99.0873 80.977 98.9968 81.0838C98.9064 81.1825 98.8323 81.2811 98.7747 81.3797C98.7172 81.4783 98.6761 81.5852 98.6514 81.7002C98.6267 81.8153 98.6185 81.9303 98.6185 82.0618C98.6185 82.1933 98.6267 82.3248 98.6514 82.4645C98.6678 82.6043 98.709 82.7851 98.7583 82.9988C98.8077 83.2124 98.8899 83.4836 98.9804 83.8042C99.0791 84.1247 99.2025 84.5356 99.3505 85.0287C99.5068 85.5218 99.6137 85.9903 99.6877 86.4341C99.7618 86.8779 99.7947 87.3135 99.7947 87.7326C99.7947 89.3434 99.2107 90.568 98.0427 91.3981C97.6973 91.6446 97.3189 91.8337 96.9241 91.9652C96.5211 92.0967 96.1181 92.1624 95.7068 92.1624C95.3202 92.1624 94.9665 92.1049 94.6622 91.9816C94.3579 91.8583 94.0865 91.6939 93.8726 91.472C93.6588 91.2501 93.4943 90.9872 93.3709 90.6749C93.2557 90.3625 93.1982 90.0091 93.1982 89.6147H93.1899ZM98.0674 81.955L94.9254 86.5409C95.1146 86.5409 95.2627 86.5985 95.3778 86.7217C95.493 86.845 95.5423 87.0094 95.5423 87.2149C95.5423 87.3217 95.5259 87.4203 95.5012 87.5189C95.4683 87.6176 95.4272 87.6997 95.3778 87.7737C95.3285 87.8477 95.2627 87.9052 95.1969 87.9463C95.1228 87.9874 95.057 88.012 94.9748 88.012C94.8761 88.012 94.7856 87.9956 94.7198 87.9545C94.654 87.9134 94.5635 87.897 94.4566 87.897C94.3332 87.897 94.2181 87.9381 94.1111 88.0285C94.0042 88.1107 93.9055 88.2339 93.8315 88.3819C93.7575 88.5298 93.6917 88.7106 93.6505 88.9243C93.6094 89.1298 93.5847 89.3599 93.5847 89.6064C93.5847 89.9352 93.6341 90.231 93.7246 90.494C93.815 90.757 93.9466 90.9789 94.1194 91.168C94.2921 91.3488 94.4977 91.4967 94.7445 91.5953C94.9912 91.6939 95.2627 91.7433 95.5752 91.7433C95.9865 91.7433 96.3648 91.6529 96.7185 91.4803C97.0722 91.3077 97.3765 91.0529 97.6397 90.7159C98.273 89.9105 98.5938 88.686 98.5938 87.0587C98.5938 86.8615 98.5938 86.6642 98.5773 86.467C98.5691 86.2697 98.5527 86.0643 98.5362 85.8506C98.5198 85.6369 98.4869 85.4068 98.454 85.1602C98.4211 84.9137 98.38 84.6342 98.3306 84.3219C98.2484 83.7959 98.1908 83.3604 98.1496 83.0152C98.1085 82.67 98.0921 82.3824 98.0921 82.1605V81.9797L98.0674 81.955Z" fill="#2B4566"/>
</g>
<defs>
<clipPath id="clip0_2252_518">
<rect width="99.7946" height="102" fill="white"/>
</clipPath>
</defs>
</svg>
