<!--
Font Awesome Pro 5.0.1 by @fontawesome - http://fontawesome.com
License - http://fontawesome.com/license (Commercial License)
-->
<svg xmlns="http://www.w3.org/2000/svg" style="display: none;">
  <symbol id="chevron-down" viewBox="0 0 512 512">
    <path d="M233.4 406.6c12.5 12.5 32.8 12.5 45.3 0l192-192c12.5-12.5 12.5-32.8 0-45.3s-32.8-12.5-45.3 0L256 338.7 86.6 169.4c-12.5-12.5-32.8-12.5-45.3 0s-12.5 32.8 0 45.3l192 192z"/>
  </symbol>
  <symbol id="chevron-left" viewBox="0 0 320 512">
    <path d="M9.4 233.4c-12.5 12.5-12.5 32.8 0 45.3l192 192c12.5 12.5 32.8 12.5 45.3 0s12.5-32.8 0-45.3L77.3 256 246.6 86.6c12.5-12.5 12.5-32.8 0-45.3s-32.8-12.5-45.3 0l-192 192z"/>
  </symbol>
  <symbol id="chevron-right" viewBox="0 0 320 512">
    <path d="M310.6 233.4c12.5 12.5 12.5 32.8 0 45.3l-192 192c-12.5 12.5-32.8 12.5-45.3 0s-12.5-32.8 0-45.3L242.7 256 73.4 86.6c-12.5-12.5-12.5-32.8 0-45.3s32.8-12.5 45.3 0l192 192z"/>
  </symbol>

  <symbol id="arrow-up-right" viewBox="0 0 40 40">
    <path d="M11.6667 28.3332L28.3334 11.6665M28.3334 11.6665H11.6667M28.3334 11.6665V28.3332" stroke="white" stroke-width="2" stroke-linecap="round" stroke-linejoin="round"/>
  </symbol>
  <symbol id="arrow-down-right" viewBox="0 0 19 19">
    <path d="M0.999959 1.16669L17.6666 17.8334M17.6666 17.8334L17.6666 1.16669M17.6666 17.8334L0.999958 17.8334" stroke="white" stroke-width="2" stroke-linecap="round" stroke-linejoin="round"/>
  </symbol>


  <symbol id="email" viewBox="0 0 512 512">
    <path d="M123.6 391.3c12.9-9.4 29.6-11.8 44.6-6.4c26.5 9.6 56.2 15.1 87.8 15.1c124.7 0 208-80.5 208-160s-83.3-160-208-160S48 160.5 48 240c0 32 12.4 62.8 35.7 89.2c8.6 9.7 12.8 22.5 11.8 35.5c-1.4 18.1-5.7 34.7-11.3 49.4c17-7.9 31.1-16.7 39.4-22.7zM21.2 431.9c1.8-2.7 3.5-5.4 5.1-8.1c10-16.6 19.5-38.4 21.4-62.9C17.7 326.8 0 285.1 0 240C0 125.1 114.6 32 256 32s256 93.1 256 208s-114.6 208-256 208c-37.1 0-72.3-6.4-104.1-17.9c-11.9 8.7-31.3 20.6-54.3 30.6c-15.1 6.6-32.3 12.6-50.1 16.1c-.8 .2-1.6 .3-2.4 .5c-4.4 .8-8.7 1.5-13.2 1.9c-.2 0-.5 .1-.7 .1c-5.1 .5-10.2 .8-15.3 .8c-6.5 0-12.3-3.9-14.8-9.9c-2.5-6-1.1-12.8 3.4-17.4c4.1-4.2 7.8-8.7 11.3-13.5c1.7-2.3 3.3-4.6 4.8-6.9l.3-.5z"/>
  </symbol>
  <symbol id="facebook" viewBox="0 0 448 512">
    <path d="M64 32C28.7 32 0 60.7 0 96V416c0 35.3 28.7 64 64 64h98.2V334.2H109.4V256h52.8V222.3c0-87.1 39.4-127.5 125-127.5c16.2 0 44.2 3.2 55.7 6.4V172c-6-.6-16.5-1-29.6-1c-42 0-58.2 15.9-58.2 57.2V256h83.6l-14.4 78.2H255V480H384c35.3 0 64-28.7 64-64V96c0-35.3-28.7-64-64-64H64z"/>
  </symbol>
  <symbol id="instagram" viewBox="0 0 448 512">
    <path d="M224.1 141c-63.6 0-114.9 51.3-114.9 114.9s51.3 114.9 114.9 114.9S339 319.5 339 255.9 287.7 141 224.1 141zm0 189.6c-41.1 0-74.7-33.5-74.7-74.7s33.5-74.7 74.7-74.7 74.7 33.5 74.7 74.7-33.6 74.7-74.7 74.7zm146.4-194.3c0 14.9-12 26.8-26.8 26.8-14.9 0-26.8-12-26.8-26.8s12-26.8 26.8-26.8 26.8 12 26.8 26.8zm76.1 27.2c-1.7-35.9-9.9-67.7-36.2-93.9-26.2-26.2-58-34.4-93.9-36.2-37-2.1-147.9-2.1-184.9 0-35.8 1.7-67.6 9.9-93.9 36.1s-34.4 58-36.2 93.9c-2.1 37-2.1 147.9 0 184.9 1.7 35.9 9.9 67.7 36.2 93.9s58 34.4 93.9 36.2c37 2.1 147.9 2.1 184.9 0 35.9-1.7 67.7-9.9 93.9-36.2 26.2-26.2 34.4-58 36.2-93.9 2.1-37 2.1-147.8 0-184.8zM398.8 388c-7.8 19.6-22.9 34.7-42.6 42.6-29.5 11.7-99.5 9-132.1 9s-102.7 2.6-132.1-9c-19.6-7.8-34.7-22.9-42.6-42.6-11.7-29.5-9-99.5-9-132.1s-2.6-102.7 9-132.1c7.8-19.6 22.9-34.7 42.6-42.6 29.5-11.7 99.5-9 132.1-9s102.7-2.6 132.1 9c19.6 7.8 34.7 22.9 42.6 42.6 11.7 29.5 9 99.5 9 132.1s2.7 102.7-9 132.1z"/>
  </symbol>
  <symbol id="linkedin" viewBox="0 0 448 512">
    <path d="M100.3 448H7.4V148.9h92.9zM53.8 108.1C24.1 108.1 0 83.5 0 53.8a53.8 53.8 0 0 1 107.6 0c0 29.7-24.1 54.3-53.8 54.3zM447.9 448h-92.7V302.4c0-34.7-.7-79.2-48.3-79.2-48.3 0-55.7 37.7-55.7 76.7V448h-92.8V148.9h89.1v40.8h1.3c12.4-23.5 42.7-48.3 87.9-48.3 94 0 111.3 61.9 111.3 142.3V448z"/>
  </symbol>

  <symbol id="twitter" viewBox="0 0 512 512">
    <path d="M389.2 48h70.6L305.6 224.2 487 464H345L233.7 318.6 106.5 464H35.8L200.7 275.5 26.8 48H172.4L272.9 180.9 389.2 48zM364.4 421.8h39.1L151.1 88h-42L364.4 421.8z"/>
  </symbol>
  <symbol id="location" viewBox="0 0 384 512">
    <path d="M192 0C85.903 0 0 86.014 0 192c0 71.117 23.991 93.341 151.271 297.424 18.785 30.119 62.694 30.083 81.457 0C360.075 285.234 384 263.103 384 192 384 85.903 297.986 0 192 0zm0 464C64.576 259.686 48 246.788 48 192c0-79.529 64.471-144 144-144s144 64.471 144 144c0 54.553-15.166 65.425-144 272zm-80-272c0-44.183 35.817-80 80-80s80 35.817 80 80-35.817 80-80 80-80-35.817-80-80z"/>
  </symbol>
  <symbol id="phone" viewBox="0 0 512 512">
    <path d="M484.25 330l-101.59-43.55a45.86 45.86 0 0 0-53.39 13.1l-32.7 40a311.08 311.08 0 0 1-124.19-124.12l40-32.7a45.91 45.91 0 0 0 13.1-53.42L182 27.79a45.63 45.63 0 0 0-52.31-26.61L35.5 22.89A45.59 45.59 0 0 0 0 67.5C0 313.76 199.68 512.1 444.56 512a45.58 45.58 0 0 0 44.59-35.51l21.7-94.22a45.75 45.75 0 0 0-26.6-52.27zm-41.59 134.09C225.08 463.09 49 287 48 69.3l90.69-20.9 42.09 98.22-68.09 55.71c46.39 99 98.19 150.63 197 197l55.69-68.11 98.19 42.11z"/>
  </symbol>
  <symbol id="youtube" viewBox="0 0 576 512">
    <path d="M549.7 124.1c-6.3-23.7-24.8-42.3-48.3-48.6C458.8 64 288 64 288 64S117.2 64 74.6 75.5c-23.5 6.3-42 24.9-48.3 48.6-11.4 42.9-11.4 132.3-11.4 132.3s0 89.4 11.4 132.3c6.3 23.7 24.8 41.5 48.3 47.8C117.2 448 288 448 288 448s170.8 0 213.4-11.5c23.5-6.3 42-24.2 48.3-47.8 11.4-42.9 11.4-132.3 11.4-132.3s0-89.4-11.4-132.3zm-317.5 213.5V175.2l142.7 81.2-142.7 81.2z"/></symbol>
  <symbol id="whatsapp" viewBox="0 0 448 512">
    <path d="M380.9 97.1C339 55.1 283.2 32 223.9 32c-122.4 0-222 99.6-222 222 0 39.1 10.2 77.3 29.6 111L0 480l117.7-30.9c32.4 17.7 68.9 27 106.1 27h.1c122.3 0 224.1-99.6 224.1-222 0-59.3-25.2-115-67.1-157zm-157 341.6c-33.2 0-65.7-8.9-94-25.7l-6.7-4-69.8 18.3L72 359.2l-4.4-7c-18.5-29.4-28.2-63.3-28.2-98.2 0-101.7 82.8-184.5 184.6-184.5 49.3 0 95.6 19.2 130.4 54.1 34.8 34.9 56.2 81.2 56.1 130.5 0 101.8-84.9 184.6-186.6 184.6zm101.2-138.2c-5.5-2.8-32.8-16.2-37.9-18-5.1-1.9-8.8-2.8-12.5 2.8-3.7 5.6-14.3 18-17.6 21.8-3.2 3.7-6.5 4.2-12 1.4-32.6-16.3-54-29.1-75.5-66-5.7-9.8 5.7-9.1 16.3-30.3 1.8-3.7 .9-6.9-.5-9.7-1.4-2.8-12.5-30.1-17.1-41.2-4.5-10.8-9.1-9.3-12.5-9.5-3.2-.2-6.9-.2-10.6-.2-3.7 0-9.7 1.4-14.8 6.9-5.1 5.6-19.4 19-19.4 46.3 0 27.3 19.9 53.7 22.6 57.4 2.8 3.7 39.1 59.7 94.8 83.8 35.2 15.2 49 16.5 66.6 13.9 10.7-1.6 32.8-13.4 37.4-26.4 4.6-13 4.6-24.1 3.2-26.4-1.3-2.5-5-3.9-10.5-6.6z"/>
  </symbol>
</svg>
